<svg xmlns="http://www.w3.org/2000/svg" viewBox="0 0 214.51 313.64"><defs><style>.cls-1{fill:#7a5b1c;}.cls-2{fill:#fff;}.cls-3{fill:#c1baae;}.cls-4{fill:#231815;}.cls-5{fill:none;stroke:#231815;stroke-linecap:round;stroke-miterlimit:10;stroke-width:3px;}.cls-6{fill:#ff472e;}</style></defs><title>tona</title><g id="レイヤー_2" data-name="レイヤー 2"><g id="レイヤー_1-2" data-name="レイヤー 1"><path class="cls-1" d="M178.55,256.88c0,37.76-30.08,56.76-64.71,56.76s-60.68-19-60.68-56.76,26.05-80,60.68-80S178.55,219.12,178.55,256.88Z"/><path class="cls-2" d="M71,162.17c-4.23.64-7.87-3-10-6.72a17.48,17.48,0,0,1-2.28-6,12,12,0,0,1,5.75-11.86c3.78-2.16,8.4-2,12.76-1.86,2.37.09,4.88.24,6.82,1.61a12.55,12.55,0,0,1,3.1,3.72c2.15,3.41,4.4,7.3,3.52,11.24-.67,3-3.1,5.37-5.86,6.73a31.07,31.07,0,0,1-8.89,2.36l-6,1"/><path class="cls-3" d="M90,194.11a45,45,0,0,0-20.26,23.17c-.7,1.82-1.25,3.95-.27,5.63,1.92,3.26,6.9,1.56,10.07-.49-.66,4.26-1.22,9,1.3,12.53s9.37,3.46,10.15-.78c-.31,4.86-.2,10.63,3.8,13.4,3,2.06,7.15,1.54,10.22-.35s5.28-4.87,7.32-7.85l2,3.58A19.89,19.89,0,0,0,129,232.4c7,3.92,17,.2,19.77-7.31,1.08-2.94,1.12-6.15,1.15-9.28.07-8.1.15-16.24-.9-24.27-.7-5.37-2.46-11.4-7.38-13.66-2.78-1.28-6-1-9.05-.73-10.87,1.08-21.83,2.67-31.9,6.89s-19.3,11.33-24.12,21.13"/><path class="cls-1" d="M63.47,191.8c-.73-4-1.75-9.4-1.82-10-.84-6.51-.5-8.1-3.36-18a69.51,69.51,0,0,1-2.16-19.64c.29-5.11,3.82-12,5.44-16.86,6.18-18.46,33.7-22.62,55.61-19.16,9.95,1.58,19.81,5.2,27.36,11.86s10.71,18.58,9.82,28.61c-1.2,13.48-7.94,22-10.37,35.3-.65,3.55-3,9.07-4.18,13a29.47,29.47,0,0,1-8,13.31c-7.54,7.11-17.81,10-27.92,10.09-9.75.12-19.76-2.38-27.48-8.36C69,206.24,64.82,199.06,63.47,191.8Z"/><path class="cls-1" d="M69,130.13a56.87,56.87,0,0,1-14.65-6.72c-3.59-2.31-7.21-5.58-7.35-9.85a4.59,4.59,0,0,1,1.62-3.93c1.26-.9,2.95-.78,4.49-.62,5.37.54,11.43,1.47,14.5,5.91,2.43,3.53,2.17,8.19,1.81,12.47"/><path class="cls-1" d="M148.35,128.12c-3.29-2.9-2.54-8.59.5-11.75s7.56-4.35,11.89-5a82.57,82.57,0,0,1,9.13-.93,2.34,2.34,0,0,1,1.89.48,2.23,2.23,0,0,1,.41,1.43,18.7,18.7,0,0,1-2.17,10,12.45,12.45,0,0,1-7.95,6.11c-4.64,1-9.32-1.22-14.06-1.49"/><path class="cls-4" d="M78.76,113.42C74,98.39,69.08,83.06,60,70,51.32,57.37,39.74,47.24,28,37.58c-6.29-5.19-13.2-10.22-17.33-17.42-1.6-2.8-5.93-.28-4.32,2.52,3.71,6.46,9.42,11.3,15.11,16S33.1,48.21,38.62,53.33a123.29,123.29,0,0,1,15.2,16.53,98.44,98.44,0,0,1,11.35,20c3.48,8.07,6.11,16.49,8.77,24.86,1,3.06,5.8,1.75,4.82-1.33Z"/><path class="cls-4" d="M55.36,63.89c-.1-11.72,5.54-22.71,5.43-34.46,0-3.21-5-3.22-5,0,.11,11.72-5.53,22.72-5.43,34.46,0,3.22,5,3.23,5,0Z"/><path class="cls-4" d="M69.48,85.4c-8.81-3.26-17.73-6.46-27.16-7.26-9-.77-18.17,1.81-27.13.2-4.11-.73-8-2.27-10.95-5.33C2,70.67-1.52,74.21.71,76.54c5.9,6.17,14.82,7.52,23,7.23,5-.19,10-.87,15.08-.81a57,57,0,0,1,13.72,2c5.32,1.41,10.5,3.31,15.66,5.22a2.52,2.52,0,0,0,3.08-1.74,2.56,2.56,0,0,0-1.75-3.08Z"/><path class="cls-4" d="M73.37,98.68,85.25,87.55a2.54,2.54,0,0,0,0-3.54,2.56,2.56,0,0,0-3.54,0L69.83,95.15a2.51,2.51,0,0,0,0,3.53,2.55,2.55,0,0,0,3.54,0Z"/><path class="cls-4" d="M135.28,115.53,154.4,91.64c6.2-7.74,12.6-15.35,18.5-23.31a72.21,72.21,0,0,0,14.35-37.79,53.82,53.82,0,0,0-6.36-29.3c-1.53-2.83-5.85-.31-4.32,2.52a48.5,48.5,0,0,1,5.79,24.66,62.27,62.27,0,0,1-3.85,19.17c-.42,1.15-.87,2.29-1.33,3.42,0,.1-.08.2-.13.3-.14.35.16-.36,0,0s-.18.43-.28.64c-.18.43-.38.87-.57,1.3A64.08,64.08,0,0,1,170,63.82c-5.42,7.66-11.59,14.82-17.45,22.14l-20.84,26a2.58,2.58,0,0,0,0,3.54,2.53,2.53,0,0,0,3.54,0Z"/><path class="cls-4" d="M156.77,86.36A55,55,0,0,0,134.66,55.9c-3.75-2.54-7.84-4.25-11.89-6.21s-8.78-4.92-9-9.86c-.12-3.21-5.12-3.22-5,0,.17,4.83,3.09,8.76,6.87,11.53s8.59,4.25,12.76,6.58A49.74,49.74,0,0,1,152,87.69c.88,3.09,5.7,1.77,4.82-1.33Z"/><path class="cls-4" d="M177.8,63.67c9.77-6.71,21.79-11.73,33.65-7.89,3.07,1,4.38-3.83,1.33-4.82-13.09-4.24-26.67.95-37.5,8.4a2.55,2.55,0,0,0-.9,3.42,2.52,2.52,0,0,0,3.42.89Z"/><path class="cls-4" d="M144.35,70.44a61.26,61.26,0,0,1-14.71.53,19.26,19.26,0,0,1-6.14-1.68,7.78,7.78,0,0,1-3.91-4,2.51,2.51,0,0,0-3.42-.9,2.56,2.56,0,0,0-.9,3.42c2.36,5.07,7.86,7.26,13.08,8,5.78.79,11.59.24,17.33-.55,1.34-.18,2.07-1.9,1.75-3.07a2.56,2.56,0,0,0-3.08-1.75Z"/><path class="cls-4" d="M143.9,103.38c7-4.19,15.55-3.31,23.35-4.34,7.26-1,14.83-3.55,18.83-10.12,1.68-2.76-2.65-5.28-4.32-2.53-3.43,5.64-10.69,7.34-16.82,7.91-8,.75-16.42.49-23.57,4.76-2.76,1.65-.25,6,2.53,4.32Z"/><path class="cls-5" d="M131.39,200.26c-5.21,0-14,8-14,16"/><path class="cls-4" d="M90.22,144.65c0,6.47-7.19,10.91-12.87,10.91s-8.66-6-8.66-12.46,4.6-10.89,10.28-10.89S90.22,138.17,90.22,144.65Z"/><path class="cls-2" d="M74.41,142c1.9,2.42,9.78,1.46,10.1-1.3s-1.49-6.52-5.06-6.19S71.48,138.29,74.41,142Z"/><path class="cls-2" d="M73.89,148.13c.55,1,2.85.58,3-.51s-.44-2.57-1.48-2.44A2,2,0,0,0,73.89,148.13Z"/><path class="cls-2" d="M79.89,149.73c.87,1.22,4.49.74,4.64-.66s-.68-3.28-2.32-3.11S78.55,147.84,79.89,149.73Z"/><path class="cls-4" d="M137.48,143.76c.53,6.45-6.27,11.47-11.93,11.93s-9.12-5.25-9.65-11.7,3.7-11.23,9.36-11.7S137,137.3,137.48,143.76Z"/><path class="cls-2" d="M121.59,143.07c2.14,2.45,10.06.76,10.14-2.25s-2.09-6.9-5.69-6.25S118.28,139.28,121.59,143.07Z"/><path class="cls-2" d="M126.42,149.5c.63.91,2.89.34,2.9-.75s-.64-2.52-1.67-2.31A2,2,0,0,0,126.42,149.5Z"/><path class="cls-2" d="M130.42,147.28c.63.79,3,.26,3-.7s-.63-2.21-1.7-2S129.43,146.06,130.42,147.28Z"/><path class="cls-6" d="M98.23,197.82c-4.22.64-7.87-3-10-6.71a17.64,17.64,0,0,1-2.28-6,12,12,0,0,1,5.75-11.87c3.78-2.16,8.4-2,12.75-1.86,2.37.1,4.89.24,6.83,1.61a12.55,12.55,0,0,1,3.1,3.72c2.15,3.42,4.39,7.3,3.52,11.24-.67,3-3.1,5.38-5.86,6.74a31.05,31.05,0,0,1-8.89,2.35l-6,1"/></g></g></svg>